<svg xmlns="http://www.w3.org/2000/svg" width="48" height="48" viewBox="0 0 48 48"><path fill="#676F6F" d="M24 36c-6.6 0-12-5.4-12-12s5.4-12 12-12 12 5.4 12 12-5.4 12-12 12zm0-23.1c-6.1 0-11.1 5-11.1 11.1s5 11.1 11.1 11.1 11.1-5 11.1-11.1-5-11.1-11.1-11.1z" opacity=".8"/><path opacity=".6" fill="#676F6F" enable-background="new" d="M24 12.9c-6.1 0-11.1 5-11.1 11.1s5 11.1 11.1 11.1 11.1-5 11.1-11.1-5-11.1-11.1-11.1z"/><path opacity=".6" fill="#fff" d="M28.7 27.7L25 24l3.7-3.7c.2-.2.2-.5 0-.7l-.3-.3c-.2-.2-.5-.2-.7 0L24 23l-3.6-3.7c-.2-.2-.5-.2-.7 0l-.3.3c-.2.2-.2.5 0 .7L23 24l-3.7 3.6c-.2.2-.2.5 0 .7l.3.3c.2.2.5.2.7 0L24 25l3.7 3.7c.1.1.2.1.4.1s.3-.1.4-.1l.3-.3c0-.2 0-.5-.1-.7z"/></svg>