<svg id="Download_on_the_App_Store_Badge_US-UK_RGB_blk_092917" xmlns="http://www.w3.org/2000/svg" width="100.226" height="29.823" viewBox="0 0 100.226 29.823">
  <g id="Group_10" data-name="Group 10">
    <g id="Group_8" data-name="Group 8">
      <path id="Path_25" data-name="Path 25" d="M92.244,0H7.069c-.256,0-.511.006-.77.009A12.4,12.4,0,0,0,4.621.143,6.074,6.074,0,0,0,3.029.61a5.413,5.413,0,0,0-1.356.879A4.732,4.732,0,0,0,.686,2.7,4.555,4.555,0,0,0,.163,4.117a8.653,8.653,0,0,0-.15,1.493C0,5.838,0,6.067,0,6.3V23.529c0,.232,0,.456.013.687a8.653,8.653,0,0,0,.15,1.493,4.545,4.545,0,0,0,.523,1.42,4.7,4.7,0,0,0,.987,1.2,5.275,5.275,0,0,0,1.356.879,6.1,6.1,0,0,0,1.592.47,12.628,12.628,0,0,0,1.678.132c.259.005.513.008.77.008H93.152c.255,0,.517,0,.772-.008a12.461,12.461,0,0,0,1.675-.132,6.2,6.2,0,0,0,1.6-.47,5.277,5.277,0,0,0,1.355-.879,4.841,4.841,0,0,0,.99-1.2,4.554,4.554,0,0,0,.519-1.42,9,9,0,0,0,.155-1.493c0-.232,0-.456,0-.687.007-.271.007-.54.007-.816V7.11c0-.273,0-.544-.007-.814,0-.229,0-.458,0-.687a9,9,0,0,0-.155-1.493A4.563,4.563,0,0,0,99.542,2.7,5.158,5.158,0,0,0,97.2.61,6.169,6.169,0,0,0,95.6.143,12.239,12.239,0,0,0,93.924.011c-.255,0-.517-.008-.772-.009h-.908Z" transform="translate(0 0)" fill="#a6a6a6"/>
      <path id="Path_26" data-name="Path 26" d="M7.225,29.393c-.256,0-.505,0-.759-.008A11.944,11.944,0,0,1,4.9,29.263a5.376,5.376,0,0,1-1.39-.408A4.553,4.553,0,0,1,2.337,28.1a4.028,4.028,0,0,1-.856-1.041,3.944,3.944,0,0,1-.456-1.236,8.254,8.254,0,0,1-.14-1.4c-.005-.157-.012-.681-.012-.681V6.518S.88,6,.885,5.852a8.225,8.225,0,0,1,.139-1.4A3.966,3.966,0,0,1,1.48,3.217a4.064,4.064,0,0,1,.852-1.042,4.687,4.687,0,0,1,1.176-.762A5.323,5.323,0,0,1,4.9,1.006,11.849,11.849,0,0,1,6.469.884L7.226.875H93.44l.766.009a11.659,11.659,0,0,1,1.559.121,5.429,5.429,0,0,1,1.4.408,4.466,4.466,0,0,1,2.026,1.8,3.969,3.969,0,0,1,.449,1.229,8.648,8.648,0,0,1,.146,1.407c0,.211,0,.438,0,.664.007.28.007.546.007.814v15.6c0,.271,0,.535-.007.8,0,.242,0,.465,0,.693a8.467,8.467,0,0,1-.143,1.382,3.953,3.953,0,0,1-.453,1.245,4.15,4.15,0,0,1-.852,1.033,4.556,4.556,0,0,1-1.174.762,5.357,5.357,0,0,1-1.4.41,11.807,11.807,0,0,1-1.568.122c-.246.005-.5.008-.753.008H7.225Z" transform="translate(-0.222 -0.223)"/>
    </g>
    <g id="_Group_" data-name="&lt;Group&gt;" transform="translate(9.332 6.502)">
      <g id="_Group_2" data-name="&lt;Group&gt;" transform="translate(0)">
        <g id="_Group_3" data-name="&lt;Group&gt;">
          <path id="_Path_" data-name="&lt;Path&gt;" d="M21,18.691a3.69,3.69,0,0,1,1.757-3.1,3.777,3.777,0,0,0-2.976-1.609c-1.252-.131-2.466.749-3.1.749s-1.633-.736-2.69-.714a3.963,3.963,0,0,0-3.335,2.034c-1.442,2.5-.366,6.165,1.015,8.183.691.988,1.5,2.092,2.556,2.053,1.034-.043,1.42-.659,2.669-.659s1.6.659,2.677.635c1.11-.018,1.809-.993,2.476-1.99a8.173,8.173,0,0,0,1.132-2.306A3.565,3.565,0,0,1,21,18.691Z" transform="translate(-9.972 -10.057)" fill="#fff"/>
          <path id="_Path_2" data-name="&lt;Path&gt;" d="M21.211,11.323a3.633,3.633,0,0,0,.831-2.6,3.7,3.7,0,0,0-2.391,1.237,3.457,3.457,0,0,0-.853,2.506A3.056,3.056,0,0,0,21.211,11.323Z" transform="translate(-12.215 -8.72)" fill="#fff"/>
        </g>
      </g>
      <g id="Group_9" data-name="Group 9" transform="translate(21.979 6.823)">
        <path id="Path_27" data-name="Path 27" d="M40.3,24.834H36.77l-.848,2.5H34.427l3.343-9.258h1.553l3.343,9.258h-1.52Zm-3.164-1.155h2.8l-1.379-4.061h-.039Z" transform="translate(-34.427 -17.924)" fill="#fff"/>
        <path id="Path_28" data-name="Path 28" d="M52.99,24.793c0,2.1-1.123,3.445-2.817,3.445a2.288,2.288,0,0,1-2.124-1.181h-.032V30.4H46.631V21.418h1.341v1.123H48a2.394,2.394,0,0,1,2.149-1.193C51.861,21.347,52.99,22.7,52.99,24.793Zm-1.424,0c0-1.367-.706-2.265-1.784-2.265-1.059,0-1.771.917-1.771,2.265s.712,2.271,1.771,2.271C50.859,27.064,51.566,26.172,51.566,24.793Z" transform="translate(-37.532 -18.755)" fill="#fff"/>
        <path id="Path_29" data-name="Path 29" d="M62.955,24.793c0,2.1-1.123,3.445-2.817,3.445a2.288,2.288,0,0,1-2.124-1.181h-.032V30.4H56.6V21.418h1.341v1.123h.026a2.394,2.394,0,0,1,2.149-1.193C61.825,21.347,62.955,22.7,62.955,24.793Zm-1.424,0c0-1.367-.706-2.265-1.784-2.265-1.059,0-1.771.917-1.771,2.265s.712,2.271,1.771,2.271c1.078,0,1.784-.892,1.784-2.271Z" transform="translate(-40.068 -18.755)" fill="#fff"/>
        <path id="Path_30" data-name="Path 30" d="M71.226,24.7c.1.918.995,1.521,2.213,1.521,1.168,0,2.008-.6,2.008-1.431,0-.719-.507-1.149-1.707-1.444l-1.2-.289c-1.7-.411-2.489-1.206-2.489-2.5,0-1.6,1.392-2.695,3.369-2.695,1.956,0,3.3,1.1,3.343,2.695h-1.4c-.084-.924-.848-1.482-1.964-1.482s-1.88.564-1.88,1.386c0,.655.488,1.04,1.681,1.335l1.02.25c1.9.449,2.689,1.212,2.689,2.567,0,1.732-1.38,2.817-3.574,2.817-2.053,0-3.44-1.059-3.529-2.734Z" transform="translate(-43.429 -17.871)" fill="#fff"/>
        <path id="Path_31" data-name="Path 31" d="M82.536,19.3v1.6H83.82v1.1H82.536v3.721c0,.578.257.848.821.848a4.33,4.33,0,0,0,.456-.032v1.091a3.8,3.8,0,0,1-.77.064c-1.367,0-1.9-.513-1.9-1.822V21.994h-.981V20.9h.981V19.3Z" transform="translate(-46.064 -18.235)" fill="#fff"/>
        <path id="Path_32" data-name="Path 32" d="M86.065,24.79c0-2.124,1.251-3.458,3.2-3.458s3.2,1.335,3.2,3.458-1.238,3.458-3.2,3.458S86.065,26.919,86.065,24.79Zm4.992,0c0-1.457-.668-2.317-1.79-2.317s-1.79.866-1.79,2.317.667,2.316,1.79,2.316,1.79-.853,1.79-2.316Z" transform="translate(-47.565 -18.751)" fill="#fff"/>
        <path id="Path_33" data-name="Path 33" d="M96.186,21.418h1.322v1.149h.032a1.61,1.61,0,0,1,1.624-1.22,2.137,2.137,0,0,1,.475.052v1.3a1.937,1.937,0,0,0-.623-.084,1.4,1.4,0,0,0-1.444,1.553v4H96.186Z" transform="translate(-50.141 -18.755)" fill="#fff"/>
        <path id="Path_34" data-name="Path 34" d="M107.306,26.182a2.709,2.709,0,0,1-2.907,2.066c-1.964,0-3.182-1.316-3.182-3.426s1.225-3.49,3.124-3.49c1.868,0,3.042,1.283,3.042,3.33v.475h-4.768v.084a1.758,1.758,0,0,0,1.816,1.912,1.527,1.527,0,0,0,1.559-.949Zm-4.684-2.015H106a1.623,1.623,0,0,0-1.656-1.713,1.709,1.709,0,0,0-1.719,1.713Z" transform="translate(-51.421 -18.751)" fill="#fff"/>
      </g>
    </g>
  </g>
  <g id="_Group_4" data-name="&lt;Group&gt;" transform="translate(31.667 6.29)">
    <g id="Group_11" data-name="Group 11">
      <path id="Path_35" data-name="Path 35" d="M37.278,8.729a1.968,1.968,0,0,1,2.093,2.21,1.977,1.977,0,0,1-2.093,2.238H35.671V8.729Zm-.916,3.82H37.2a1.4,1.4,0,0,0,1.467-1.6A1.4,1.4,0,0,0,37.2,9.358h-.839Z" transform="translate(-35.671 -8.51)" fill="#fff"/>
      <path id="Path_36" data-name="Path 36" d="M41.678,11.85a1.59,1.59,0,1,1,3.166,0,1.591,1.591,0,1,1-3.166,0Zm2.485,0c0-.728-.327-1.153-.9-1.153s-.9.426-.9,1.153.324,1.156.9,1.156.9-.425.9-1.156Z" transform="translate(-37.197 -8.862)" fill="#fff"/>
      <path id="Path_37" data-name="Path 37" d="M50.3,13.552h-.687l-.694-2.473h-.052l-.691,2.473h-.681l-.925-3.357h.672l.6,2.562h.05l.69-2.562h.636l.69,2.562h.052l.6-2.562h.663Z" transform="translate(-38.444 -8.884)" fill="#fff"/>
      <path id="Path_38" data-name="Path 38" d="M53.854,10.172h.638V10.7h.05a1,1,0,0,1,1-.6A1.092,1.092,0,0,1,56.7,11.355v2.173h-.663V11.522c0-.54-.234-.808-.724-.808a.77.77,0,0,0-.8.851v1.964h-.663Z" transform="translate(-40.297 -8.861)" fill="#fff"/>
      <path id="Path_39" data-name="Path 39" d="M59.094,8.437h.663V13.1h-.663Z" transform="translate(-41.63 -8.437)" fill="#fff"/>
      <path id="Path_40" data-name="Path 40" d="M61.215,11.85a1.591,1.591,0,1,1,3.167,0,1.591,1.591,0,1,1-3.167,0Zm2.485,0c0-.728-.327-1.153-.9-1.153s-.9.426-.9,1.153.324,1.156.9,1.156S63.7,12.581,63.7,11.85Z" transform="translate(-42.168 -8.862)" fill="#fff"/>
      <path id="Path_41" data-name="Path 41" d="M66.4,12.581c0-.6.45-.953,1.249-1l.909-.052v-.29c0-.355-.234-.555-.687-.555-.37,0-.626.136-.7.373H66.53c.068-.577.61-.947,1.372-.947.842,0,1.316.419,1.316,1.128V13.53h-.638v-.472h-.052a1.13,1.13,0,0,1-1.008.527,1.014,1.014,0,0,1-1.119-1Zm2.158-.287v-.281l-.82.052c-.462.031-.672.188-.672.484s.262.478.623.478a.791.791,0,0,0,.869-.734Z" transform="translate(-43.49 -8.862)" fill="#fff"/>
      <path id="Path_42" data-name="Path 42" d="M71.348,11.425c0-1.061.545-1.733,1.394-1.733a1.106,1.106,0,0,1,1.03.589h.049V8.437h.663V13.1h-.635v-.53H73.8a1.165,1.165,0,0,1-1.054.586C71.888,13.16,71.348,12.488,71.348,11.425Zm.684,0c0,.712.336,1.141.9,1.141s.9-.435.9-1.138-.349-1.141-.9-1.141-.9.431-.9,1.138Z" transform="translate(-44.748 -8.437)" fill="#fff"/>
      <path id="Path_43" data-name="Path 43" d="M79.227,11.85a1.59,1.59,0,1,1,3.166,0,1.591,1.591,0,1,1-3.166,0Zm2.485,0c0-.728-.327-1.153-.9-1.153s-.9.426-.9,1.153.324,1.156.9,1.156S81.712,12.581,81.712,11.85Z" transform="translate(-46.751 -8.862)" fill="#fff"/>
      <path id="Path_44" data-name="Path 44" d="M84.669,10.172h.638V10.7h.05a1,1,0,0,1,1-.6,1.092,1.092,0,0,1,1.162,1.249v2.173h-.663V11.522c0-.54-.234-.808-.724-.808a.77.77,0,0,0-.8.851v1.964h-.663Z" transform="translate(-48.138 -8.861)" fill="#fff"/>
      <path id="Path_45" data-name="Path 45" d="M93.107,9.074v.851h.727v.558h-.727v1.726c0,.352.145.506.475.506a2.212,2.212,0,0,0,.253-.015v.552a2.173,2.173,0,0,1-.36.034c-.737,0-1.03-.259-1.03-.906v-1.9h-.533V9.925h.533V9.074Z" transform="translate(-49.98 -8.599)" fill="#fff"/>
      <path id="Path_46" data-name="Path 46" d="M95.7,8.437h.657v1.85h.052a1.033,1.033,0,0,1,1.024-.6,1.106,1.106,0,0,1,1.156,1.252V13.1H97.93v-2c0-.536-.25-.808-.718-.808a.784.784,0,0,0-.845.851V13.1H95.7Z" transform="translate(-50.945 -8.437)" fill="#fff"/>
      <path id="Path_47" data-name="Path 47" d="M103.731,12.623a1.363,1.363,0,0,1-1.455.971,1.525,1.525,0,0,1-1.551-1.733,1.548,1.548,0,0,1,1.548-1.754c.934,0,1.5.638,1.5,1.692v.231H101.4v.037a.887.887,0,0,0,.894.962.8.8,0,0,0,.8-.407ZM101.4,11.542h1.7a.81.81,0,0,0-.826-.87.859.859,0,0,0-.869.87Z" transform="translate(-52.219 -8.862)" fill="#fff"/>
    </g>
  </g>
</svg>
